<?xml version="1.0" encoding="UTF-8" standalone="no"?>
<svg xmlns="http://www.w3.org/2000/svg" width="100" height="100" id="addon" version="1.1">
  <path
     style="fill:#ffffff;fill-opacity:1;stroke:#034091;stroke-width:8;stroke-linecap:round;stroke-linejoin:round;stroke-miterlimit:4;stroke-dasharray:none;stroke-dashoffset:0;stroke-opacity:1"
     d="M 7.5735931,50 22.670046,65.096453 a 10,10 0 0 0 -4.489851,2.581217 10,10 0 0 0 0,14.142135 10,10 0 0 0 14.142135,0 10,10 0 0 0 2.577073,-4.493995 L 50,92.426407 65.100597,77.32581 a 10,10 0 0 1 -4.493995,-2.577073 10,10 0 0 1 0,-14.142135 10,10 0 0 1 14.142135,0 10,10 0 0 1 2.581217,4.489851 L 92.426407,50 77.329954,34.903547 a 10,10 0 0 0 4.489851,-2.581217 10,10 0 0 0 0,-14.142135 10,10 0 0 0 -14.142135,0 10,10 0 0 0 -2.577073,4.493995 L 50,7.5735931 34.899403,22.67419 a 10,10 0 0 1 4.493995,2.577073 10,10 0 0 1 0,14.142135 10,10 0 0 1 -14.142135,0 10,10 0 0 1 -2.581217,-4.489851 L 7.5735931,50 Z"/>
</svg>
