<?xml version="1.0" encoding="UTF-8" standalone="no"?>
  <svg xmlns:svg="http://www.w3.org/2000/svg" xmlns="http://www.w3.org/2000/svg" xmlns:xlink="http://www.w3.org/1999/xlink" width="256" height="256" id="artifact" version="1.1">
    <g>
      <linearGradient id="linearGradient4153">
        <stop style="stop-color:#ef7c00;stop-opacity:1;" offset="0" id="stop4155" />
        <stop style="stop-color:#ffffff;stop-opacity:1" offset="1" id="stop4157" />
      </linearGradient>
      <linearGradient id="linearGradient4145">
        <stop style="stop-color:#bd1789;stop-opacity:1;" offset="0" id="stop4147" />
        <stop style="stop-color:#ffffff;stop-opacity:1" offset="1" id="stop4149" />
      </linearGradient>
      <linearGradient xlink:href="#linearGradient4145" id="linearGradient4151" x1="101.29473" y1="1011.0803" x2="-12.66375" y2="813.69843" gradientUnits="userSpaceOnUse" gradientTransform="matrix(0.96,0,0,0.96,5,-759.26759)" />
      <linearGradient xlink:href="#linearGradient4153" id="linearGradient4159" x1="182.04318" y1="883.36725" x2="65.370529" y2="766.69458" gradientUnits="userSpaceOnUse" gradientTransform="matrix(0.96,0,0,0.96,5,-759.26759)" />
      <path style="fill:url(#linearGradient4159);fill-opacity:1;stroke:#000000;stroke-width:4;stroke-linecap:round;stroke-linejoin:round;stroke-miterlimit:4;stroke-dasharray:none;stroke-opacity:1" d="M 5,66.680088 127.88,5.2400872 250.76,66.680088 127.88,121.40008 Z" />
      <path style="fill:url(#linearGradient4151);fill-opacity:1;stroke:#000000;stroke-width:4;stroke-linecap:round;stroke-linejoin:round;stroke-miterlimit:4;stroke-dasharray:none;stroke-opacity:1" d="m 5,66.680088 c 40.96,18.239997 81.92,36.479992 122.88,54.719992 0,43.20001 0,86.40003 0,129.60004 C 86.92,230.52011 45.96,210.04009 5,189.56008 5,148.60008 5,107.64009 5,66.680088 Z" />
      <path style="fill:#86ba0c;fill-opacity:1;stroke:#000000;stroke-width:4;stroke-linecap:round;stroke-linejoin:round;stroke-miterlimit:4;stroke-dasharray:none;stroke-opacity:1" d="m 127.88,121.40008 122.88,-54.719992 0,122.879992 -122.88,61.44004 z" />
      <path style="fill:#7b4c2b;fill-opacity:1;stroke:none;stroke-width:2;stroke-miterlimit:4;stroke-dasharray:none;stroke-opacity:1" d="m 173.96,28.280088 -122.88,58.92 0,47.563112 3.84,-5.01 3.84,7.67626 4.183125,-7.49439 3.496875,10.16251 0,-46.057492 122.88,-58.08 -15.36,-7.68 z" />
    </g>
  </svg>