<?xml version="1.0" encoding="UTF-8" standalone="no"?>
<svg xmlns="http://www.w3.org/2000/svg" width="100" height="100" id="collaboration" version="1.1">
  <path
     style="color:#000000;font-style:normal;font-variant:normal;font-weight:normal;font-stretch:normal;font-size:medium;line-height:normal;font-family:sans-serif;text-indent:0;text-align:start;text-decoration:none;text-decoration-line:none;text-decoration-style:solid;text-decoration-color:#000000;letter-spacing:normal;word-spacing:normal;text-transform:none;direction:ltr;block-progression:tb;writing-mode:lr-tb;baseline-shift:baseline;text-anchor:start;white-space:normal;clip-rule:nonzero;display:inline;overflow:visible;visibility:visible;opacity:1;isolation:auto;mix-blend-mode:normal;color-interpolation:sRGB;color-interpolation-filters:linearRGB;solid-color:#000000;solid-opacity:1;fill:#034091;fill-opacity:1;fill-rule:nonzero;stroke:none;stroke-width:10;stroke-linecap:butt;stroke-linejoin:miter;stroke-miterlimit:4;stroke-dasharray:none;stroke-dashoffset:0;stroke-opacity:1;color-rendering:auto;image-rendering:auto;shape-rendering:auto;text-rendering:auto;enable-background:accumulate"
     d="M 35.201172 10.167969 C 19.050594 16.197547 7.5 31.787935 7.5 50 C 7.5 52.414501 7.7137154 54.779637 8.1035156 57.085938 A 15 15 0 0 1 10.027344 55.751953 A 15 15 0 0 1 17.722656 53.761719 C 17.581525 52.526965 17.5 51.273831 17.5 50 C 17.5 36.576167 25.554481 25.11054 37.113281 20.140625 A 15 15 0 0 1 35 12.5 A 15 15 0 0 1 35.201172 10.167969 z M 64.808594 10.171875 A 15 15 0 0 1 65 12.5 A 15 15 0 0 1 62.888672 20.140625 C 74.446594 25.11092 82.5 36.576801 82.5 50 C 82.5 51.273831 82.418475 52.526965 82.277344 53.761719 A 15 15 0 0 1 89.970703 55.751953 A 15 15 0 0 1 91.894531 57.097656 C 92.285627 54.787657 92.5 52.418594 92.5 50 C 92.5 31.791648 80.954003 16.204123 64.808594 10.171875 z M 30.580078 76.097656 A 15 15 0 0 1 25.027344 81.732422 A 15 15 0 0 1 22.923828 82.71875 C 30.284683 88.822763 39.725577 92.5 50 92.5 C 60.27093 92.5 69.708593 88.824897 77.068359 82.724609 A 15 15 0 0 1 74.970703 81.732422 A 15 15 0 0 1 69.417969 76.097656 C 64.007592 80.121832 57.29271 82.5 50 82.5 C 42.706716 82.5 35.990675 80.122408 30.580078 76.097656 z "
     id="path4155" />
  <circle
     style="fill:#009149;fill-opacity:1;stroke:none;stroke-width:8;stroke-linecap:round;stroke-linejoin:round;stroke-miterlimit:4;stroke-dasharray:none;stroke-dashoffset:0;stroke-opacity:1"
     cx="49.576275" cy="12.5" r="10"/>
  <circle
     r="10" cy="-19.194473" cx="-68.718834"
     style="fill:#009149;fill-opacity:1;stroke:none;stroke-width:8;stroke-linecap:round;stroke-linejoin:round;stroke-miterlimit:4;stroke-dasharray:none;stroke-dashoffset:0;stroke-opacity:1"
     transform="matrix(-0.5,-0.8660254,0.8660254,-0.5,0,0)" />
  <circle
     transform="matrix(-0.5,0.8660254,-0.8660254,-0.5,0,0)"
     style="fill:#009149;fill-opacity:1;stroke:none;stroke-width:8;stroke-linecap:round;stroke-linejoin:round;stroke-miterlimit:4;stroke-dasharray:none;stroke-dashoffset:0;stroke-opacity:1"
     cx="17.876942" cy="-105.79381" r="10"/>
</svg>
