<?xml version="1.0" encoding="UTF-8" standalone="no"?>
<svg xmlns="http://www.w3.org/2000/svg" width="256" height="256" id="connector2" version="1.1">
  <path
     d="m 67.860681,103.5032 -29.9999,6e-4 6.089438,-30.615 27.716425,11.4805 z"
     style="fill:#034091;fill-opacity:1;stroke:none;stroke-width:2;stroke-miterlimit:4;stroke-dasharray:none;stroke-opacity:1" />
  <rect
     y="178.50386" x="37.860783" height="30" width="30"
     style="fill:#034091;fill-opacity:1;stroke:none;stroke-width:2;stroke-miterlimit:4;stroke-dasharray:none;stroke-opacity:1" />
  <rect
     y="143.50386" x="37.860783" height="30" width="30"
     style="fill:#034091;fill-opacity:1;stroke:none;stroke-width:2;stroke-miterlimit:4;stroke-dasharray:none;stroke-opacity:1" />
  <rect
     y="108.50387" x="37.860783" height="30" width="30"
     style="fill:#034091;fill-opacity:1;stroke:none;stroke-width:2;stroke-miterlimit:4;stroke-dasharray:none;stroke-opacity:1" />
  <path
     d="M 5,228.9794 209.97804,50.87744 194.00592,41.82446 250.38943,23.49765 239.73329,72.03256 225.59769,62.03529 66.256381,251 Z"
     style="fill:#00914d;fill-opacity:1;stroke:none;stroke-width:2;stroke-miterlimit:4;stroke-dasharray:none;stroke-opacity:1" />
  <path
     d="m 108.10749,54.462 -5.85333,-29.42341 31.21475,-3e-4 -5.85268,29.42361 z"
     style="fill:#034091;fill-opacity:1;stroke:none;stroke-width:2;stroke-miterlimit:4;stroke-dasharray:none;stroke-opacity:1" />
  <path
     d="M 87.423001,63.8339 69.159778,40.03373 97.155293,26.22752 104.91986,55.2053 Z"
     style="fill:#034091;fill-opacity:1;stroke:none;stroke-width:2;stroke-miterlimit:4;stroke-dasharray:none;stroke-opacity:1" />
  <path
     d="M 73.01695,81.3879 46.11058,68.1199 65.112673,43.35532 84.893086,65.9105 Z"
     style="fill:#034091;fill-opacity:1;stroke:none;stroke-width:2;stroke-miterlimit:4;stroke-dasharray:none;stroke-opacity:1" />
  <path
     d="m 164.05799,84.3699 27.716,-11.481 6.09,30.6149 -30,0 z"
     style="fill:#034091;fill-opacity:1;stroke:none;stroke-width:2;stroke-miterlimit:4;stroke-dasharray:none;stroke-opacity:1" />
  <path
     d="M 150.83073,65.9095 170.61054,43.35397 189.61312,68.1181 162.70694,81.3868 Z"
     style="fill:#034091;fill-opacity:1;stroke:none;stroke-width:2;stroke-miterlimit:4;stroke-dasharray:none;stroke-opacity:1" />
  <path
     d="m 130.80383,55.2048 7.76394,-28.97781 27.99579,13.80564 -18.26284,23.80067 z"
     style="fill:#034091;fill-opacity:1;stroke:none;stroke-width:2;stroke-miterlimit:4;stroke-dasharray:none;stroke-opacity:1" />
  <rect
     y="178.50386" x="167.86078" height="30" width="30"
     style="fill:#034091;fill-opacity:1;stroke:none;stroke-width:2;stroke-miterlimit:4;stroke-dasharray:none;stroke-opacity:1" />
  <rect
     y="143.50386" x="167.86078" height="30" width="30"
     style="fill:#034091;fill-opacity:1;stroke:none;stroke-width:2;stroke-miterlimit:4;stroke-dasharray:none;stroke-opacity:1" />
  <rect
     y="108.50387" x="167.86078" height="30" width="30"
     style="fill:#034091;fill-opacity:1;stroke:none;stroke-width:2;stroke-miterlimit:4;stroke-dasharray:none;stroke-opacity:1" />
</svg>
