<?xml version="1.0" encoding="UTF-8" standalone="no"?>
<svg xmlns="http://www.w3.org/2000/svg" width="100" height="100" id="consistency-constraint" version="1.1">
  <path
     style="fill:none;fill-opacity:1;stroke:#034091;stroke-width:8;stroke-linecap:round;stroke-linejoin:round;stroke-miterlimit:4;stroke-dasharray:none;stroke-dashoffset:0;stroke-opacity:1"
     d="m 16.903802,68.954062 a 9.9999999,9.9999999 0 0 0 0,14.142136 9.9999999,9.9999999 0 0 0 14.142136,0 L 45.188073,68.954062 a 9.9999999,9.9999999 0 0 0 0,-14.142134 9.9999999,9.9999999 0 0 0 -14.142135,-1e-6 L 16.903802,68.954062 Z"/>
  <path
     style="fill:none;fill-opacity:1;stroke:#034091;stroke-width:8;stroke-linecap:round;stroke-linejoin:round;stroke-miterlimit:4;stroke-dasharray:none;stroke-dashoffset:0;stroke-opacity:1"
     d="m 54.903809,30.954066 a 10.000033,9.9999964 0 0 0 0,14.142131 10.000033,9.9999964 0 0 0 14.14218,0 l 14.14218,-14.142131 a 10.000033,9.9999964 0 0 0 0,-14.142129 10.000033,9.9999964 0 0 0 -14.14218,-1e-6 l -14.14218,14.14213 z"/>
  <path
     style="fill:none;fill-rule:evenodd;stroke:#00914d;stroke-width:8;stroke-linecap:round;stroke-linejoin:miter;stroke-miterlimit:4;stroke-dasharray:none;stroke-opacity:1"
     d="M 62,38 C 53.833598,46.166402 44.972537,55.027463 38,62"/>
</svg>
