<?xml version="1.0" encoding="UTF-8" standalone="no"?>
<svg xmlns="http://www.w3.org/2000/svg" xmlns:svg="http://www.w3.org/2000/svg" xmlns:xlink="http://www.w3.org/1999/xlink" width="100" height="100" id="consistency" version="1.1">
  <path
     style="fill:#ffffff;fill-opacity:1;fill-rule:evenodd;stroke:#034091;stroke-width:2.21077633;stroke-linecap:butt;stroke-linejoin:round;stroke-miterlimit:4;stroke-dasharray:none;stroke-opacity:1"
     d="m 6.1053882,65.368407 0,28.526205 28.5261458,0 0,-28.526205 z" />
  <path
     style="fill:#ffffff;fill-opacity:1;fill-rule:evenodd;stroke:#034091;stroke-width:2.21077633;stroke-linecap:butt;stroke-linejoin:round;stroke-miterlimit:4;stroke-dasharray:none;stroke-opacity:1"
     d="m 6.1053882,65.368407 28.5261458,0 14.263078,-10.697306 -28.526151,0 z" />
  <path
     style="fill:#ffffff;fill-opacity:1;fill-rule:evenodd;stroke:#034091;stroke-width:2.21077633;stroke-linecap:butt;stroke-linejoin:round;stroke-miterlimit:4;stroke-dasharray:none;stroke-opacity:1"
     d="m 34.631534,65.368407 0,28.526205 14.263078,-10.697306 0,-28.526205 z" />
  <path
     style="fill:none;fill-rule:evenodd;stroke:#034091;stroke-width:4;stroke-linecap:round;stroke-linejoin:miter;stroke-miterlimit:4;stroke-dasharray:none;stroke-opacity:1"
     d="m 72.95756,38.277962 c 0,17.340268 -4.240352,36.553829 -30.860893,36.553829" />
  <path
     style="fill:#ffffff;fill-opacity:1;fill-rule:evenodd;stroke:#034091;stroke-width:2.21077204;stroke-linecap:butt;stroke-linejoin:round;stroke-miterlimit:4;stroke-dasharray:none;stroke-opacity:1"
     d="m 51.105202,15.368404 0,28.526206 28.526029,0 0,-28.526206 z" />
  <path
     style="fill:#ffffff;fill-opacity:1;fill-rule:evenodd;stroke:#034091;stroke-width:2.21077204;stroke-linecap:butt;stroke-linejoin:round;stroke-miterlimit:4;stroke-dasharray:none;stroke-opacity:1"
     d="m 51.105202,15.368404 28.526029,0 14.26302,-10.6973072 -28.526034,0 z" />
  <path
     style="fill:#ffffff;fill-opacity:1;fill-rule:evenodd;stroke:#034091;stroke-width:2.21077204;stroke-linecap:butt;stroke-linejoin:round;stroke-miterlimit:4;stroke-dasharray:none;stroke-opacity:1"
     d="m 79.631231,15.368404 0,28.526206 14.26302,-10.697306 0,-28.5262072 z" />
  <path
     style="fill:none;fill-rule:evenodd;stroke:#034091;stroke-width:4;stroke-linecap:round;stroke-linejoin:miter;stroke-miterlimit:4;stroke-dasharray:none;stroke-opacity:1"
     d="m 66.604776,29.977609 c -24.868488,0 -39.400073,7.939968 -39.400073,28.763665" />
  <path
     style="fill:none;fill-rule:evenodd;stroke:#86ba0c;stroke-width:10;stroke-linecap:round;stroke-linejoin:round;stroke-miterlimit:4;stroke-dasharray:none;stroke-opacity:1"
     d="m 50.580862,70.334671 17.999926,14.999999 21.99991,-30" />
</svg>
