<?xml version="1.0" encoding="UTF-8" standalone="no"?>
<svg xmlns="http://www.w3.org/2000/svg" width="100" height="100" id="consistency" version="1.1">
  <path
     style="fill:none;fill-rule:evenodd;stroke:#00914d;stroke-width:8;stroke-linecap:round;stroke-linejoin:round;stroke-miterlimit:4;stroke-dasharray:none;stroke-opacity:1"
     d="m 15,95 5,-10 10,-5 m 40,0 10,5 5,10"/>
  <path
     style="fill:none;fill-rule:evenodd;stroke:#00914d;stroke-width:8;stroke-linecap:round;stroke-linejoin:round;stroke-miterlimit:4;stroke-dasharray:none;stroke-opacity:1"
     d="M 10,75 20,60 35,55 m 30,0 15,5 10,15"/>
  <path
     style="fill:none;fill-rule:evenodd;stroke:#00914d;stroke-width:8;stroke-linecap:round;stroke-linejoin:round;stroke-miterlimit:4;stroke-dasharray:none;stroke-opacity:1"
     d="m 15,25 5,15 15,5 m 30,0 15,-5 5,-15"/>
  <path
     style="fill:#034091;fill-opacity:1;stroke:none;stroke-width:10;stroke-linecap:round;stroke-linejoin:round;stroke-miterlimit:4;stroke-dasharray:none;stroke-dashoffset:0;stroke-opacity:1"
     d="M 50 26 A 25 35 0 0 0 25 61 A 25 35 0 0 0 45.689453 95.441406 A 7.5 25 0 0 1 42.5 75 A 7.5 25 0 0 1 50 50 A 7.5 25 0 0 1 57.5 75 A 7.5 25 0 0 1 54.287109 95.478516 A 25 35 0 0 0 75 61 A 25 35 0 0 0 50 26 z "/>
  <ellipse
     style="fill:#034091;fill-opacity:1;stroke:none;stroke-width:10;stroke-linecap:round;stroke-linejoin:round;stroke-miterlimit:4;stroke-dasharray:none;stroke-dashoffset:0;stroke-opacity:1"
     ry="10" rx="15" cy="15" cx="50" />
</svg>
