<?xml version="1.0" encoding="UTF-8" standalone="no"?>
<svg xmlns="http://www.w3.org/2000/svg" width="100" height="100" id="criterion" version="1.1">
  <rect
     style="fill:#ffffff;fill-opacity:1;fill-rule:nonzero;stroke:#034091;stroke-width:8;stroke-linecap:butt;stroke-linejoin:round;stroke-miterlimit:4;stroke-dasharray:none;stroke-dashoffset:0;stroke-opacity:1"
     width="75" height="80" x="12.5" y="15.5"/>
  <path
     style="fill:#ffffff;fill-opacity:1;fill-rule:nonzero;stroke:#034091;stroke-width:8;stroke-linecap:butt;stroke-linejoin:round;stroke-miterlimit:4;stroke-dasharray:none;stroke-dashoffset:0;stroke-opacity:1"
     d="M 50.000002,5.5000001 A 7.5,7.5 0 0 0 42.500002,13 l -7.500004,0 a 7.5,7.5 0 0 0 -7.5,7.5 7.5,7.5 0 0 0 7.5,7.5 l 30.000004,0 a 7.5,7.5 0 0 0 7.5,-7.5 7.5,7.5 0 0 0 -7.5,-7.5 l -7.5,0 a 7.5,7.5 0 0 0 -7.5,-7.4999999 z"/>
  <rect
     style="fill:none;fill-opacity:1;fill-rule:nonzero;stroke:#888888;stroke-width:8;stroke-linecap:butt;stroke-linejoin:round;stroke-miterlimit:4;stroke-dasharray:none;stroke-dashoffset:0;stroke-opacity:1"
     width="30" height="30" x="35" y="45.5"/>
  <path
     style="fill:none;fill-rule:evenodd;stroke:#00914d;stroke-width:8;stroke-linecap:round;stroke-linejoin:round;stroke-miterlimit:4;stroke-dasharray:none;stroke-opacity:1"
     d="m 30.313013,56.348478 17.627679,11.2026 22.8995,-26.02964"/>
</svg>
