<?xml version="1.0" encoding="UTF-8" standalone="no"?>
<svg
   xmlns:dc="http://purl.org/dc/elements/1.1/"
   xmlns:cc="http://creativecommons.org/ns#"
   xmlns:rdf="http://www.w3.org/1999/02/22-rdf-syntax-ns#"
   xmlns:svg="http://www.w3.org/2000/svg"
   xmlns="http://www.w3.org/2000/svg"
   xmlns:sodipodi="http://sodipodi.sourceforge.net/DTD/sodipodi-0.dtd"
   xmlns:inkscape="http://www.inkscape.org/namespaces/inkscape"
   width="100"
   height="100"
   id="exploration"
   version="1.1"
   inkscape:version="0.91 r13725"
   sodipodi:docname="db.svg">
  <metadata
     id="metadata19">
    <rdf:RDF>
      <cc:Work
         rdf:about="">
        <dc:format>image/svg+xml</dc:format>
        <dc:type
           rdf:resource="http://purl.org/dc/dcmitype/StillImage" />
      </cc:Work>
    </rdf:RDF>
  </metadata>
  <defs
     id="defs17" />
  <sodipodi:namedview
     pagecolor="#ffffff"
     bordercolor="#666666"
     borderopacity="1"
     objecttolerance="10"
     gridtolerance="10"
     guidetolerance="10"
     inkscape:pageopacity="0"
     inkscape:pageshadow="2"
     inkscape:window-width="1871"
     inkscape:window-height="1056"
     id="namedview15"
     showgrid="false"
     inkscape:zoom="2.36"
     inkscape:cx="-2.9661012"
     inkscape:cy="50"
     inkscape:window-x="49"
     inkscape:window-y="24"
     inkscape:window-maximized="1"
     inkscape:current-layer="exploration" />
  <path
     style="fill:#034091;fill-opacity:1;stroke:none;stroke-width:2;stroke-miterlimit:4;stroke-dasharray:none;stroke-opacity:1"
     d="m 90,41.818186 c 0,7.30771 -7.62397,14.060303 -19.999996,17.714151 -12.376043,3.653856 -27.623949,3.653856 -40.000006,0 C 17.62397,55.878489 10.000019,49.125896 10.000002,41.818186 l 0,-10.22728 c 0,7.307708 7.623953,14.060435 19.999996,17.714289 12.376057,3.653853 27.623963,3.653853 40.000006,0 C 82.376046,45.651341 90,38.898614 90,31.590906 Z"
     id="path23"
     inkscape:connector-curvature="0" />
  <ellipse
     style="fill:#034091;fill-opacity:1;stroke:none;stroke-width:6;stroke-linecap:round;stroke-linejoin:miter;stroke-miterlimit:4;stroke-dasharray:none;stroke-opacity:1"
     id="path4155"
     cx="49.999996"
     cy="25.454544"
     rx="39.999996"
     ry="20.454544" />
  <path
     style="fill:#034091;fill-opacity:1;stroke:none;stroke-width:2;stroke-miterlimit:4;stroke-dasharray:none;stroke-opacity:1"
     d="m 90,58.181823 c 0,7.307709 -7.62397,14.0603 -19.999996,17.714152 -12.376043,3.653854 -27.623949,3.653854 -40.000006,0 C 17.62397,72.242123 10.000019,65.489532 10.000002,58.181823 l 0,-10.227279 c 0,7.307708 7.623953,14.060435 19.999996,17.714289 12.376057,3.653851 27.623963,3.653851 40.000006,0 C 82.376046,62.014979 90,55.262252 90,47.954544 Z"
     id="path23-6"
     inkscape:connector-curvature="0" />
  <path
     style="fill:#034091;fill-opacity:1;stroke:none;stroke-width:2;stroke-miterlimit:4;stroke-dasharray:none;stroke-opacity:1"
     d="m 90,74.545459 c 0,7.307711 -7.62397,14.060301 -19.999996,17.714153 -12.376043,3.653851 -27.623949,3.653851 -40.000006,0 C 17.62397,88.605762 10.000019,81.853171 10.000002,74.545459 l 0,-10.22728 c 0,7.307707 7.623953,14.060437 19.999996,17.714291 12.376057,3.653851 27.623963,3.653851 40.000006,0 C 82.376046,78.378616 90,71.625886 90,64.318178 Z"
     id="path23-7"
     inkscape:connector-curvature="0" />
  <ellipse
     style="fill:#ffffff;fill-opacity:1;stroke:none;stroke-width:6;stroke-linecap:round;stroke-linejoin:round;stroke-miterlimit:4;stroke-dasharray:18, 18;stroke-dashoffset:0;stroke-opacity:1"
     id="path4148"
     cx="50"
     cy="25"
     rx="30"
     ry="15" />
</svg>
