<?xml version="1.0" encoding="UTF-8" standalone="no"?>
<svg xmlns="http://www.w3.org/2000/svg" width="100" height="100" id="denotation" version="1.1">
  <path
     d="M 30,90 C 30,90 40.990195,70.454628 34.292857,63.224089 27.595519,55.993551 20.427367,54.571543 20.552981,40.319727 20.340434,25.701675 29.410057,13.238543 41.501662,10.991572 53.593267,8.7446024 76.941689,12.77909 76.941689,32.60507 c 0.704319,5.954159 2.978114,11.936432 9.376847,21.27152 1.261201,1.839961 -6.460525,1.680379 -10.85503,1.688486 C 73.89168,62.598487 73.405084,70.548471 73.405084,70.548471 59.503605,70.161452 62.031495,69.359963 60.849059,78.069697 59.658515,82.194001 56,90 56,90 Z"
     style="fill:none;fill-rule:evenodd;stroke:#034091;stroke-width:8;stroke-linecap:butt;stroke-linejoin:round;stroke-miterlimit:4;stroke-dasharray:none;stroke-opacity:1" />
  <path
     style="fill:#00914d;fill-opacity:1;stroke:#00914d;stroke-width:1.89342272;stroke-miterlimit:4;stroke-dasharray:none;stroke-opacity:1"
     d="m 55.256616,33.229338 2.08829,-0.447842 0.697878,0.02196 3.01051,1.435157 0,1.522775 -3.01051,1.435157 -0.697878,0.02196 -2.08829,-0.447842 -1.166259,2.815599 1.793317,1.159973 0.477947,0.508999 1.113942,3.143559 -1.076766,1.076767 -3.14356,-1.113942 -0.509,-0.477947 -1.159972,-1.793318 -2.8156,1.16626 0.447842,2.08829 -0.02196,0.697878 -1.435157,3.010508 -1.522775,0 -1.435158,-3.010508 -0.02196,-0.697878 0.447843,-2.08829 -2.8156,-1.16626 -1.159973,1.793318 -0.508999,0.477947 -3.14356,1.113942 -1.076767,-1.076767 1.113942,-3.143559 0.477947,-0.508999 1.793318,-1.159973 -1.16626,-2.815599 -2.08829,0.447842 -0.697878,-0.02196 -3.010509,-1.435157 0,-1.522775 3.010509,-1.435157 0.697878,-0.02196 2.08829,0.447842 1.16626,-2.815599 -1.793318,-1.159972 -0.477947,-0.509 -1.113942,-3.143559 1.076767,-1.076766 3.14356,1.113942 0.508999,0.477947 1.159973,1.793316 2.8156,-1.166259 -0.447843,-2.088289 0.02196,-0.697878 1.435158,-3.010509 1.522775,0 1.435157,3.010509 0.02196,0.697878 -0.447842,2.088289 2.8156,1.166259 1.159972,-1.793316 0.509,-0.477947 3.14356,-1.113942 1.076766,1.076766 -1.113942,3.143559 -0.477947,0.509 -1.793317,1.159972 z"/>
</svg>
