<?xml version="1.0" encoding="UTF-8" standalone="no"?>
<svg xmlns="http://www.w3.org/2000/svg" width="100" height="100" id="importer_configuration" version="1.1">
  <path
     style="fill:none;fill-rule:evenodd;stroke:#034091;stroke-width:8;stroke-linecap:round;stroke-linejoin:miter;stroke-miterlimit:4;stroke-dasharray:none;stroke-opacity:1"
     d="m 10,80 10,0 c 12.59725,0.336162 21.622452,-8.83952 26.022333,-18.984375 m 7.959146,-22.03125 C 60.499397,26.293298 66.793535,20.094337 80,20 l 10,0"/>
  <path
     style="fill:none;fill-rule:evenodd;stroke:#034091;stroke-width:8;stroke-linecap:round;stroke-linejoin:miter;stroke-opacity:1;stroke-miterlimit:4;stroke-dasharray:none"
     d="m 10,20 10,0 c 40.128215,0 19.969388,60 60,60 l 10,0"/>
  <path
     style="fill:none;fill-rule:evenodd;stroke:#034091;stroke-width:8;stroke-linecap:round;stroke-linejoin:round;stroke-opacity:1;stroke-miterlimit:4;stroke-dasharray:none"
     d="M 80,10 90,20 80,30"/>
  <path
     style="fill:none;fill-rule:evenodd;stroke:#034091;stroke-width:8;stroke-linecap:round;stroke-linejoin:round;stroke-opacity:1;stroke-miterlimit:4;stroke-dasharray:none"
     d="M 80,70 90,80 80,90"/>
  <path
     style="fill:#00914d;fill-opacity:1;stroke:none;stroke-width:4;stroke-linecap:round;stroke-linejoin:round;stroke-miterlimit:4;stroke-dasharray:none;stroke-dashoffset:0;stroke-opacity:1"
     d="m 18.970588,30 0,6.340992 a 14.117647,14.117647 0 0 0 -3.627757,1.510111 l -4.488971,-4.488971 -4.991728,4.991728 4.487133,4.487132 a 14.117647,14.117647 0 0 0 -1.50092,3.629596 l -6.348345,0 0,7.058824 6.340992,0 a 14.117647,14.117647 0 0 0 1.510111,3.627757 l -4.488971,4.488971 4.991728,4.991728 4.487132,-4.487133 a 14.117647,14.117647 0 0 0 3.629596,1.50092 l 0,6.348345 7.058824,0 0,-6.340992 a 14.117647,14.117647 0 0 0 3.627757,-1.510111 l 4.488971,4.488971 4.991728,-4.991728 -4.487133,-4.487132 a 14.117647,14.117647 0 0 0 1.50092,-3.629596 l 6.348345,0 0,-7.058824 -6.340992,0 a 14.117647,14.117647 0 0 0 -1.510111,-3.627757 l 4.488971,-4.488971 -4.991728,-4.991728 -4.487132,4.487133 a 14.117647,14.117647 0 0 0 -3.629596,-1.50092 l 0,-6.348345 -7.058824,0 z M 22.5,42.941176 A 7.0588235,7.0588235 0 0 1 29.558824,50 7.0588235,7.0588235 0 0 1 22.5,57.058824 7.0588235,7.0588235 0 0 1 15.441176,50 7.0588235,7.0588235 0 0 1 22.5,42.941176 Z"/>
</svg>
