<?xml version="1.0" encoding="UTF-8" standalone="no"?>
<svg
   xmlns:dc="http://purl.org/dc/elements/1.1/"
   xmlns:cc="http://creativecommons.org/ns#"
   xmlns:rdf="http://www.w3.org/1999/02/22-rdf-syntax-ns#"
   xmlns:svg="http://www.w3.org/2000/svg"
   xmlns="http://www.w3.org/2000/svg"
   xmlns:xlink="http://www.w3.org/1999/xlink"
   xmlns:sodipodi="http://sodipodi.sourceforge.net/DTD/sodipodi-0.dtd"
   xmlns:inkscape="http://www.inkscape.org/namespaces/inkscape"
   width="100"
   height="100"
   id="inconsistency"
   version="1.1"
   inkscape:version="0.91 r13725"
   sodipodi:docname="inconsistency.svg">
  <metadata
     id="metadata21">
    <rdf:RDF>
      <cc:Work
         rdf:about="">
        <dc:format>image/svg+xml</dc:format>
        <dc:type
           rdf:resource="http://purl.org/dc/dcmitype/StillImage" />
      </cc:Work>
    </rdf:RDF>
  </metadata>
  <sodipodi:namedview
     pagecolor="#ffffff"
     bordercolor="#666666"
     borderopacity="1"
     objecttolerance="10"
     gridtolerance="10"
     guidetolerance="10"
     inkscape:pageopacity="0"
     inkscape:pageshadow="2"
     inkscape:window-width="1871"
     inkscape:window-height="1056"
     id="namedview19"
     showgrid="false"
     inkscape:zoom="5.6568542"
     inkscape:cx="35.741556"
     inkscape:cy="22.796229"
     inkscape:window-x="49"
     inkscape:window-y="24"
     inkscape:window-maximized="1"
     inkscape:current-layer="inconsistency" />
  <defs
     id="defs3">
    <linearGradient
       id="linearGradient4159">
      <stop
         id="stop4161"
         offset="0"
         style="stop-color:#ff0000;stop-opacity:1;" />
      <stop
         id="stop4163"
         offset="1"
         style="stop-color:#ffffff;stop-opacity:1" />
    </linearGradient>
    <linearGradient
       id="linearGradient4165"
       xlink:href="#linearGradient4159"
       x1="50"
       y1="50"
       x2="0"
       y2="0"
       gradientUnits="userSpaceOnUse" />
  </defs>
  <path
     style="fill:none;fill-rule:evenodd;stroke:#fc4d4d;stroke-width:8;stroke-linecap:round;stroke-linejoin:round;stroke-miterlimit:4;stroke-dasharray:none;stroke-opacity:1"
     d="m 15,95 5,-10 10,-5 m 40,0 10,5 5,10"
     id="path4151"
     inkscape:connector-curvature="0"
     sodipodi:nodetypes="cccccc" />
  <path
     style="fill:none;fill-rule:evenodd;stroke:#fc4d4d;stroke-width:8;stroke-linecap:round;stroke-linejoin:round;stroke-miterlimit:4;stroke-dasharray:none;stroke-opacity:1"
     d="M 10,75 20,60 35,55 m 30,0 15,5 10,15"
     id="path4153"
     inkscape:connector-curvature="0"
     sodipodi:nodetypes="cccccc" />
  <path
     style="fill:none;fill-rule:evenodd;stroke:#fc4d4d;stroke-width:8;stroke-linecap:round;stroke-linejoin:round;stroke-miterlimit:4;stroke-dasharray:none;stroke-opacity:1"
     d="m 15,25 5,15 15,5 m 30,0 15,-5 5,-15"
     id="path4155"
     inkscape:connector-curvature="0"
     sodipodi:nodetypes="cccccc" />
  <path
     style="fill:#cb0404;fill-opacity:1;stroke:none;stroke-width:10;stroke-linecap:round;stroke-linejoin:round;stroke-miterlimit:4;stroke-dasharray:none;stroke-dashoffset:0;stroke-opacity:1"
     d="M 50 26 A 25 35 0 0 0 25 61 A 25 35 0 0 0 45.689453 95.441406 A 7.5 25 0 0 1 42.5 75 A 7.5 25 0 0 1 50 50 A 7.5 25 0 0 1 57.5 75 A 7.5 25 0 0 1 54.287109 95.478516 A 25 35 0 0 0 75 61 A 25 35 0 0 0 50 26 z "
     id="path4149" />
  <ellipse
     style="fill:#cb0404;fill-opacity:1;stroke:none;stroke-width:10;stroke-linecap:round;stroke-linejoin:round;stroke-miterlimit:4;stroke-dasharray:none;stroke-dashoffset:0;stroke-opacity:1"
     id="path4157"
     ry="10"
     rx="15"
     cy="15"
     cx="50" />
</svg>
