<?xml version="1.0" encoding="UTF-8" standalone="no"?>
<svg xmlns:svg="http://www.w3.org/2000/svg" xmlns="http://www.w3.org/2000/svg" xmlns:xlink="http://www.w3.org/1999/xlink" width="100" height="100" id="jobs" version="1.1">
<g transform="matrix(0.78617112,0,0,0.78617112,40,60.000001)"
   style="fill:#034091;fill-opacity:1;stroke:none">
    <path
       style="fill:#034091;fill-opacity:1;stroke:none;stroke-width:1"
       d="m 47.78125,0 -3.380859,7.4667969 -0.257813,2.6484371 0.664063,4.515625 -7.994141,2.140625 -1.681641,-4.240234 -1.546875,-2.166016 -6.662109,-4.7753902 -3.84375,2.21875 0.806641,8.1562502 1.101562,2.421875 2.830078,3.578125 -5.851562,5.851562 -3.578125,-2.830078 -2.421875,-1.101562 -8.1562502,-0.806641 -2.21875,3.84375 4.7753902,6.662109 2.166016,1.546875 4.240234,1.681641 -2.140625,7.994141 L 10.115234,44.142578 7.4667969,44.400391 0,47.78125 l 0,4.4375 7.4667969,3.380859 2.6484371,0.257813 4.515625,-0.664063 2.140625,7.994141 -4.240234,1.681641 -2.166016,1.546875 -4.7753902,6.662109 2.21875,3.84375 8.1562502,-0.806641 2.421875,-1.101562 3.578125,-2.830078 5.851562,5.851562 -2.830078,3.578125 -1.101562,2.421875 -0.806641,8.15625 3.84375,2.21875 6.662109,-4.77539 1.546875,-2.166016 1.681641,-4.240234 7.994141,2.140625 -0.664063,4.515625 0.257813,2.648437 L 47.78125,100 l 4.4375,0 3.380859,-7.466797 0.257813,-2.648437 -0.664063,-4.515625 7.994141,-2.140625 1.681641,4.240234 1.546875,2.166016 6.662109,4.77539 3.84375,-2.21875 -0.806641,-8.15625 -1.101562,-2.421875 -2.830078,-3.578125 5.851562,-5.851562 3.578125,2.830078 2.421875,1.101562 8.15625,0.806641 2.21875,-3.84375 -4.77539,-6.662109 -2.166016,-1.546875 -4.240234,-1.681641 2.140625,-7.994141 4.515625,0.664063 2.648437,-0.257813 L 100,52.21875 l 0,-4.4375 -7.466797,-3.380859 -2.648437,-0.257813 -4.515625,0.664063 -2.140625,-7.994141 4.240234,-1.681641 2.166016,-1.546875 4.77539,-6.662109 -2.21875,-3.84375 -8.15625,0.806641 -2.421875,1.101562 -3.578125,2.830078 -5.851562,-5.851562 2.830078,-3.578125 1.101562,-2.421875 0.806641,-8.1562502 -3.84375,-2.21875 L 66.416016,10.365234 64.869141,12.53125 63.1875,16.771484 55.193359,14.630859 55.857422,10.115234 55.599609,7.4667969 52.21875,0 47.78125,0 Z M 50,25 A 25,25 0 0 1 75,50 25,25 0 0 1 50,75 25,25 0 0 1 25,50 25,25 0 0 1 50,25 Z"
       transform="matrix(0.89039139,0,0,0.89039139,-44.51957,-44.51957)"/>
  </g>
  <circle
     style="fill:#034091;fill-opacity:1;stroke:none;stroke-width:3;stroke-linecap:round;stroke-linejoin:miter;stroke-miterlimit:4;stroke-dasharray:none;stroke-opacity:1"
     id="path4197"
     cx="65"
     cy="35"
     r="30" />
  <circle
     style="fill:#ffffff;fill-opacity:1;stroke:none;stroke-width:3;stroke-linecap:round;stroke-linejoin:miter;stroke-miterlimit:4;stroke-dasharray:none;stroke-opacity:1"
     id="path4199"
     cx="65"
     cy="35"
     r="22.5" />
  <path
     style="fill:none;fill-rule:evenodd;stroke:#00914d;stroke-width:6;stroke-linecap:round;stroke-linejoin:miter;stroke-miterlimit:4;stroke-dasharray:none;stroke-opacity:1"
     d="M 65,17.393906 65,35 72.907681,45.723723"/>
</svg>
