<?xml version="1.0" encoding="UTF-8" standalone="no"?>
<svg xmlns="http://www.w3.org/2000/svg" width="100" height="100" id="log" version="1.1">
  <path
     style="fill:#ffffff;fill-opacity:1;stroke:#034091;stroke-width:8;stroke-linecap:round;stroke-linejoin:round;stroke-miterlimit:4;stroke-dasharray:none;stroke-dashoffset:0;stroke-opacity:1"
     d="m 75,10 5,0 0,80 -60,0 0,-13 m 0,-14 0,-6 m 0,-14 0,-6 m 0,-14 0,-13 30,0"/>
  <path
     style="fill:none;fill-rule:evenodd;stroke:#034091;stroke-width:4;stroke-linecap:butt;stroke-linejoin:miter;stroke-opacity:1;stroke-miterlimit:4;stroke-dasharray:none"
     d="m 38,10 0,80"/>
  <path
     style="fill:#00914d;fill-opacity:1;fill-rule:evenodd;stroke:none;stroke-width:1px;stroke-linecap:butt;stroke-linejoin:miter;stroke-opacity:1"
     d="M 55,6 70,6 70,50 62.5,40 55,50 Z"/>
  <circle
     style="fill:#034091;fill-opacity:1;stroke:none;stroke-width:4;stroke-linecap:round;stroke-linejoin:round;stroke-miterlimit:4;stroke-dasharray:none;stroke-dashoffset:0;stroke-opacity:1"
     cx="29" cy="50" r="4" />
  <circle
     style="fill:#034091;fill-opacity:1;stroke:none;stroke-width:4;stroke-linecap:round;stroke-linejoin:round;stroke-miterlimit:4;stroke-dasharray:none;stroke-dashoffset:0;stroke-opacity:1"
     cx="29" cy="70" r="4" />
  <circle
     style="fill:#034091;fill-opacity:1;stroke:none;stroke-width:4;stroke-linecap:round;stroke-linejoin:round;stroke-miterlimit:4;stroke-dasharray:none;stroke-dashoffset:0;stroke-opacity:1"
     cx="29" cy="30" r="4" />
  <path
     style="fill:none;fill-rule:evenodd;stroke:#034091;stroke-width:4;stroke-linecap:round;stroke-linejoin:miter;stroke-opacity:1;stroke-miterlimit:4;stroke-dasharray:none"
     d="M 29,30 10,30"/>
  <path
     style="fill:none;fill-rule:evenodd;stroke:#034091;stroke-width:4;stroke-linecap:round;stroke-linejoin:miter;stroke-opacity:1;stroke-miterlimit:4;stroke-dasharray:none"
     d="M 29,50 10,50"/>
  <path
     style="fill:none;fill-rule:evenodd;stroke:#034091;stroke-width:4;stroke-linecap:round;stroke-linejoin:miter;stroke-opacity:1;stroke-miterlimit:4;stroke-dasharray:none"
     d="M 29,70 10,70"/>
</svg>
