<?xml version="1.0" encoding="UTF-8" standalone="no"?>
<svg xmlns="http://www.w3.org/2000/svg" width="100" height="100" id="module-collaboration" version="1.1">
  <circle
     style="fill:#009149;fill-opacity:1;stroke:none;stroke-width:8;stroke-linecap:round;stroke-linejoin:round;stroke-miterlimit:4;stroke-dasharray:none;stroke-dashoffset:0;stroke-opacity:1"
     cx="50" cy="50" r="10" />
  <g transform="matrix(-0.77559109,0.63123566,-0.63123566,-0.77559109,115.00938,57.547022)">
    <path
       style="fill:none;fill-opacity:1;stroke:#034091;stroke-width:8;stroke-linecap:round;stroke-linejoin:round;stroke-miterlimit:4;stroke-dasharray:none;stroke-dashoffset:0;stroke-opacity:1"
       d="m 57.813977,38.102421 c 4.500873,-4.500873 10.605101,-7.02887 16.970297,-7.02887 6.365197,0 12.46969,2.528564 16.970564,7.029438"/>
    <path
       style="fill:none;fill-rule:evenodd;stroke:#034091;stroke-width:8;stroke-linecap:round;stroke-linejoin:round;stroke-miterlimit:4;stroke-dasharray:none;stroke-opacity:1"
       d="m 59.611242,26.932331 -1.797519,11.170265 11.170121,1.797168"/>
  </g>
  <g transform="matrix(0.81046457,0.58578766,-0.58578766,0.81046457,40.461205,-14.747745)">
    <path
       d="m 57.813977,38.102421 c 4.500873,-4.500873 10.605101,-7.02887 16.970297,-7.02887 6.365197,0 12.46969,2.528564 16.970564,7.029438"
       style="fill:none;fill-opacity:1;stroke:#034091;stroke-width:8;stroke-linecap:round;stroke-linejoin:round;stroke-miterlimit:4;stroke-dasharray:none;stroke-dashoffset:0;stroke-opacity:1" />
    <path
       d="m 59.611242,26.932331 -1.797519,11.170265 11.170121,1.797168"
       style="fill:none;fill-rule:evenodd;stroke:#034091;stroke-width:8;stroke-linecap:round;stroke-linejoin:round;stroke-miterlimit:4;stroke-dasharray:none;stroke-opacity:1" />
  </g>
  <g transform="matrix(-0.15887057,-0.98729942,0.98729942,-0.15887057,10.957951,102.52921)">
    <path
       d="m 57.813977,38.102421 c 4.500873,-4.500873 10.605101,-7.02887 16.970297,-7.02887 6.365197,0 12.46969,2.528564 16.970564,7.029438"
       style="fill:none;fill-opacity:1;stroke:#034091;stroke-width:8;stroke-linecap:round;stroke-linejoin:round;stroke-miterlimit:4;stroke-dasharray:none;stroke-dashoffset:0;stroke-opacity:1" />
    <path
       d="m 59.611242,26.932331 -1.797519,11.170265 11.170121,1.797168"
       style="fill:none;fill-rule:evenodd;stroke:#034091;stroke-width:8;stroke-linecap:round;stroke-linejoin:round;stroke-miterlimit:4;stroke-dasharray:none;stroke-opacity:1" />
  </g>
</svg>
