<?xml version="1.0" encoding="UTF-8" standalone="no"?>
<svg xmlns="http://www.w3.org/2000/svg" width="100" height="100" id="necronomicon" version="1.1">
  <g>
    <circle
       style="fill:none;fill-opacity:1;stroke:#034091;stroke-width:2;stroke-linecap:round;stroke-linejoin:round;stroke-miterlimit:4;stroke-dasharray:none;stroke-dashoffset:0;stroke-opacity:1"
       cx="50" cy="50" r="47.5" />
    <path
       style="fill:none;fill-rule:evenodd;stroke:#034091;stroke-width:2;stroke-linecap:round;stroke-linejoin:round;stroke-miterlimit:4;stroke-dasharray:none;stroke-opacity:1"
       d="m 37.628183,84.595217 c -1.217908,-4.5453 -6.123527,-7.7018 -11.111678,-8.0181 -4.316697,-0.2737 -8.522907,0.3176 -12.516504,3.4229 L 50,2.5001374 22.000001,88.000017 95,36.000137 l -89.9999996,0 L 77,89.000017 50,2.5001374 88,64.000017"/>
    <path
       style="fill:none;fill-rule:evenodd;stroke:#034091;stroke-width:2;stroke-linecap:round;stroke-linejoin:round;stroke-miterlimit:4;stroke-dasharray:none;stroke-opacity:1"
       d="m 16.000001,50.000017 68.999999,0 -41,30 21.5,-64.99988 c 0.987105,-2.55355 2.596187,-5.5101296 4.5,-5 2.226798,0.59667 1,5 1,5 l -2,7"/>
    <path
       style="fill:none;fill-rule:evenodd;stroke:#034091;stroke-width:2;stroke-linecap:round;stroke-linejoin:round;stroke-miterlimit:4;stroke-dasharray:none;stroke-opacity:1"
       d="m 82.107143,75.178617 c 0,-6.5379 7.596939,-15 14,-15"/>
    <circle
       style="fill:none;fill-opacity:1;stroke:#034091;stroke-width:2;stroke-linecap:round;stroke-linejoin:round;stroke-miterlimit:4;stroke-dasharray:none;stroke-dashoffset:0;stroke-opacity:1"
       cx="13.743025" cy="50.144104" r="1.9327111" />
    <circle
       style="fill:none;fill-opacity:1;stroke:#034091;stroke-width:2;stroke-linecap:round;stroke-linejoin:round;stroke-miterlimit:4;stroke-dasharray:none;stroke-dashoffset:0;stroke-opacity:1"
       cx="67.528572" cy="23.948486" r="2.4324324" />
    <circle
       style="fill:none;fill-opacity:1;stroke:#034091;stroke-width:2;stroke-linecap:round;stroke-linejoin:round;stroke-miterlimit:4;stroke-dasharray:none;stroke-dashoffset:0;stroke-opacity:1"
       cx="38.112949" cy="86.888428" r="1.9327111" />
  </g>
</svg>
