<?xml version="1.0" encoding="UTF-8" standalone="no"?>
<svg xmlns="http://www.w3.org/2000/svg" width="100" height="100" id="network" version="1.1">
  <path
     style="fill:none;fill-rule:evenodd;stroke:#009149;stroke-width:4;stroke-linecap:butt;stroke-linejoin:miter;stroke-opacity:1;stroke-miterlimit:4;stroke-dasharray:none"
     d="m 80.311,32.5 -60.622,35"/>
  <path
     style="fill:none;fill-rule:evenodd;stroke:#009149;stroke-width:4;stroke-linecap:butt;stroke-linejoin:miter;stroke-opacity:1;stroke-miterlimit:4;stroke-dasharray:none"
     d="m 19.689,32.5 60.622,35"/>
  <path
     style="fill:none;fill-rule:evenodd;stroke:#009149;stroke-width:4;stroke-linecap:butt;stroke-linejoin:miter;stroke-opacity:1;stroke-miterlimit:4;stroke-dasharray:none"
     d="m 50,15 0,70"/>
  <path
     style="fill:none;fill-rule:evenodd;stroke:#009149;stroke-width:4;stroke-linecap:butt;stroke-linejoin:miter;stroke-opacity:1;stroke-miterlimit:4;stroke-dasharray:none"
     d="m 50,15 -30.311,17.5 0,35 L 50,85 80.311,67.5 l 0,-35 z" />
  <circle
     r="10" cy="35.80127" cx="-37.990379"
     style="fill:#034091;fill-opacity:1;stroke:none;stroke-width:8;stroke-linecap:round;stroke-linejoin:round;stroke-miterlimit:4;stroke-dasharray:none;stroke-dashoffset:0;stroke-opacity:1"
     transform="matrix(-0.5,-0.8660254,0.8660254,-0.5,0,0)" />
  <circle
     r="10" cy="18.301271" cx="-68.30127"
     style="fill:#034091;fill-opacity:1;stroke:none;stroke-width:8;stroke-linecap:round;stroke-linejoin:round;stroke-miterlimit:4;stroke-dasharray:none;stroke-dashoffset:0;stroke-opacity:1"
     transform="matrix(-0.5,-0.8660254,0.8660254,-0.5,0,0)" />
  <circle
     transform="matrix(0.5,-0.8660254,0.8660254,0.5,0,0)"
     style="fill:#034091;fill-opacity:1;stroke:none;stroke-width:8;stroke-linecap:round;stroke-linejoin:round;stroke-miterlimit:4;stroke-dasharray:none;stroke-dashoffset:0;stroke-opacity:1"
     cx="12.012806" cy="85.80529" r="10"/>
  <circle
     r="10" cy="67.503273" cx="80.319145"
     style="fill:#034091;fill-opacity:1;stroke:none;stroke-width:8;stroke-linecap:round;stroke-linejoin:round;stroke-miterlimit:4;stroke-dasharray:none;stroke-dashoffset:0;stroke-opacity:1" />
  <circle
     style="fill:#034091;fill-opacity:1;stroke:none;stroke-width:8;stroke-linecap:round;stroke-linejoin:round;stroke-miterlimit:4;stroke-dasharray:none;stroke-dashoffset:0;stroke-opacity:1"
     cx="98.622299" cy="-0.80276549" r="10"
     transform="matrix(0.5,0.8660254,-0.8660254,0.5,0,0)" />
  <circle
     transform="matrix(-0.5,0.8660254,-0.8660254,-0.5,0,0)"
     r="10" cy="-50.806786" cx="48.619114"
     style="fill:#034091;fill-opacity:1;stroke:none;stroke-width:8;stroke-linecap:round;stroke-linejoin:round;stroke-miterlimit:4;stroke-dasharray:none;stroke-dashoffset:0;stroke-opacity:1" />
  <circle
     style="fill:#034091;fill-opacity:1;stroke:none;stroke-width:8;stroke-linecap:round;stroke-linejoin:round;stroke-miterlimit:4;stroke-dasharray:none;stroke-dashoffset:0;stroke-opacity:1"
     cx="-19.687229" cy="-32.504765" r="10" transform="scale(-1,-1)" />
</svg>
