<?xml version="1.0" encoding="UTF-8" standalone="no"?>
<svg
   xmlns:dc="http://purl.org/dc/elements/1.1/"
   xmlns:cc="http://creativecommons.org/ns#"
   xmlns:rdf="http://www.w3.org/1999/02/22-rdf-syntax-ns#"
   xmlns:svg="http://www.w3.org/2000/svg"
   xmlns="http://www.w3.org/2000/svg"
   xmlns:sodipodi="http://sodipodi.sourceforge.net/DTD/sodipodi-0.dtd"
   xmlns:inkscape="http://www.inkscape.org/namespaces/inkscape"
   width="100"
   height="100"
   id="rule"
   version="1.1"
   inkscape:version="0.91 r13725"
   sodipodi:docname="rule.svg">
  <metadata
     id="metadata23">
    <rdf:RDF>
      <cc:Work
         rdf:about="">
        <dc:format>image/svg+xml</dc:format>
        <dc:type
           rdf:resource="http://purl.org/dc/dcmitype/StillImage" />
      </cc:Work>
    </rdf:RDF>
  </metadata>
  <defs
     id="defs21" />
  <sodipodi:namedview
     pagecolor="#ffffff"
     bordercolor="#666666"
     borderopacity="1"
     objecttolerance="10"
     gridtolerance="10"
     guidetolerance="10"
     inkscape:pageopacity="0"
     inkscape:pageshadow="2"
     inkscape:window-width="1871"
     inkscape:window-height="1056"
     id="namedview19"
     showgrid="false"
     inkscape:zoom="6.675088"
     inkscape:cx="47.675155"
     inkscape:cy="63.04357"
     inkscape:window-x="49"
     inkscape:window-y="24"
     inkscape:window-maximized="1"
     inkscape:current-layer="rule" />
  <path
     style="fill:none;fill-opacity:1;stroke:#034091;stroke-width:8;stroke-linecap:round;stroke-linejoin:round;stroke-miterlimit:4;stroke-dasharray:none;stroke-dashoffset:0;stroke-opacity:1"
     d="m 16.903802,68.954062 a 9.9999999,9.9999999 0 0 0 0,14.142136 9.9999999,9.9999999 0 0 0 14.142136,0 L 45.188073,68.954062 a 9.9999999,9.9999999 0 0 0 0,-14.142134 9.9999999,9.9999999 0 0 0 -14.142135,-1e-6 L 16.903802,68.954062 Z"
     id="path4151"
     inkscape:connector-curvature="0" />
  <path
     style="fill:none;fill-opacity:1;stroke:#034091;stroke-width:8;stroke-linecap:round;stroke-linejoin:round;stroke-miterlimit:4;stroke-dasharray:none;stroke-dashoffset:0;stroke-opacity:1"
     d="m 54.903809,30.954066 a 10.000033,9.9999964 0 0 0 0,14.142131 10.000033,9.9999964 0 0 0 14.14218,0 l 14.14218,-14.142131 a 10.000033,9.9999964 0 0 0 0,-14.142129 10.000033,9.9999964 0 0 0 -14.14218,-1e-6 l -14.14218,14.14213 z"
     id="path4151-6"
     inkscape:connector-curvature="0" />
  <path
     style="fill:none;fill-rule:evenodd;stroke:#00914d;stroke-width:8;stroke-linecap:round;stroke-linejoin:miter;stroke-miterlimit:4;stroke-dasharray:none;stroke-opacity:1"
     d="M 62,38 C 53.833598,46.166402 44.972537,55.027463 38,62"
     id="path4189"
     inkscape:connector-curvature="0"
     sodipodi:nodetypes="cc" />
</svg>
