<?xml version="1.0" encoding="UTF-8" standalone="no"?>
<svg xmlns="http://www.w3.org/2000/svg" width="100" height="100" id="rule" version="1.1">
  <g transform="matrix(0.8,0,0,0.8,37.652542,63.118644)"
     style="fill:#034091;fill-opacity:1;stroke:none;stroke-opacity:1">
    <path
       style="fill:#034091;fill-opacity:1;stroke:none;stroke-width:1;stroke-opacity:1"
       d="m -7.5506192,-13.898306 -1.6901377,3.733439 -0.1283234,1.3238137 0.3312273,2.2571725 -3.996665,1.0715541 -0.84123,-2.1211725 -0.77323,-1.081425 -3.330921,-2.3887858 -1.921558,1.1099408 0.402518,4.0778275 0.550584,1.2108449 1.415943,1.7899448 -2.926209,2.9251116 -1.788848,-1.4159425 -1.210845,-0.5505837 -4.078925,-0.4025182 -1.108844,1.9215582 2.38769,3.3309207 1.082522,0.7732297 2.120076,0.8412302 -1.070458,3.996666 -2.257172,-0.331228 -1.323814,0.128323 -3.733439,1.690138 0,2.219883 3.733439,1.690138 1.323814,0.128323 2.257172,-0.331227 1.070458,3.996665 -2.120076,0.84123 -1.082522,0.77323 -2.38769,3.330921 1.108844,1.921557 4.078925,-0.403615 1.210845,-0.549486 1.788848,-1.415943 2.926209,2.925112 -1.415943,1.788848 -0.550584,1.211942 -0.402518,4.077827 1.921558,1.109941 3.330921,-2.388786 0.77323,-1.082522 0.84123,-2.120075 3.996665,1.070457 -0.3312273,2.257173 0.1283234,1.32491 1.6901377,3.733439 2.2187857,0 1.6901374,-3.733439 0.1294202,-1.32491 -0.3323244,-2.257173 3.9966661,-1.070457 0.8423269,2.120075 0.7732293,1.082522 3.3309208,2.388786 1.9215575,-1.109941 -0.403615,-4.077827 -0.5505825,-1.211942 -1.4159433,-1.788848 2.9262092,-2.925112 1.7888473,1.415943 1.210845,0.549486 4.078924,0.403615 1.109942,-1.921557 -2.388787,-3.330921 -1.082522,-0.77323 -2.120075,-0.84123 1.070457,-3.996665 2.257173,0.331227 1.323813,-0.128323 3.734536,-1.690138 0,-2.219883 L 14.824786,8.301615 13.500973,8.173292 11.2438,8.50452 10.173343,4.507854 12.293418,3.6666238 13.37594,2.8933941 15.764727,-0.4375266 14.654785,-2.3590848 10.575861,-1.9565666 9.365016,-1.4059829 7.5761687,0.0099596 4.6499595,-2.915152 6.0659028,-4.7050968 6.6164853,-5.9159417 7.0201003,-9.9937692 5.0985428,-11.10371 1.767622,-8.7149242 l -0.7732293,1.081425 -0.8423269,2.1211725 -3.9966661,-1.0715541 0.3323244,-2.2571725 -0.1294202,-1.3238137 -1.6901374,-3.733439 -2.2187857,0 z m 1.1099409,12.3650968 A 12.634904,12.634904 0 0 1 6.1942253,11.101695 12.634904,12.634904 0 0 1 -6.4406783,23.736598 12.634904,12.634904 0 0 1 -19.075582,11.101695 12.634904,12.634904 0 0 1 -6.4406783,-1.5332092 Z"/>
  </g>
  <g transform="matrix(0.8,0,0,0.8,71.974577,48.711865)"
     style="fill:#00914d;fill-opacity:1;stroke:none;stroke-opacity:1">
    <path
       style="fill:#00914d;fill-opacity:1;stroke:none;stroke-width:1;stroke-opacity:1"
       d="m -7.5506192,-13.898306 -1.6901377,3.733439 -0.1283234,1.3238137 0.3312273,2.2571725 -3.996665,1.0715541 -0.84123,-2.1211725 -0.77323,-1.081425 -3.330921,-2.3887858 -1.921558,1.1099408 0.402518,4.0778275 0.550584,1.2108449 1.415943,1.7899448 -2.926209,2.9251116 -1.788848,-1.4159425 -1.210845,-0.5505837 -4.078925,-0.4025182 -1.108844,1.9215582 2.38769,3.3309207 1.082522,0.7732297 2.120076,0.8412302 -1.070458,3.996666 -2.257172,-0.331228 -1.323814,0.128323 -3.733439,1.690138 0,2.219883 3.733439,1.690138 1.323814,0.128323 2.257172,-0.331227 1.070458,3.996665 -2.120076,0.84123 -1.082522,0.77323 -2.38769,3.330921 1.108844,1.921557 4.078925,-0.403615 1.210845,-0.549486 1.788848,-1.415943 2.926209,2.925112 -1.415943,1.788848 -0.550584,1.211942 -0.402518,4.077827 1.921558,1.109941 3.330921,-2.388786 0.77323,-1.082522 0.84123,-2.120075 3.996665,1.070457 -0.3312273,2.257173 0.1283234,1.32491 1.6901377,3.733439 2.2187857,0 1.6901374,-3.733439 0.1294202,-1.32491 -0.3323244,-2.257173 3.9966661,-1.070457 0.8423269,2.120075 0.7732293,1.082522 3.3309208,2.388786 1.9215575,-1.109941 -0.403615,-4.077827 -0.5505825,-1.211942 -1.4159433,-1.788848 2.9262092,-2.925112 1.7888473,1.415943 1.210845,0.549486 4.078924,0.403615 1.109942,-1.921557 -2.388787,-3.330921 -1.082522,-0.77323 -2.120075,-0.84123 1.070457,-3.996665 2.257173,0.331227 1.323813,-0.128323 3.734536,-1.690138 0,-2.219883 L 14.824786,8.301615 13.500973,8.173292 11.2438,8.50452 10.173343,4.507854 12.293418,3.6666238 13.37594,2.8933941 15.764727,-0.4375266 14.654785,-2.3590848 10.575861,-1.9565666 9.365016,-1.4059829 7.5761687,0.0099596 4.6499595,-2.915152 6.0659028,-4.7050968 6.6164853,-5.9159417 7.0201003,-9.9937692 5.0985428,-11.10371 1.767622,-8.7149242 l -0.7732293,1.081425 -0.8423269,2.1211725 -3.9966661,-1.0715541 0.3323244,-2.2571725 -0.1294202,-1.3238137 -1.6901374,-3.733439 -2.2187857,0 z m 1.1099409,12.3650968 A 12.634904,12.634904 0 0 1 6.1942253,11.101695 12.634904,12.634904 0 0 1 -6.4406783,23.736598 12.634904,12.634904 0 0 1 -19.075582,11.101695 12.634904,12.634904 0 0 1 -6.4406783,-1.5332092 Z"/>
  </g>
  <g transform="matrix(0.8,0,0,0.8,49.940677,19.474576)"
     style="fill:#034091;fill-opacity:1;stroke:none;stroke-opacity:1">
    <path
       style="fill:#034091;fill-opacity:1;stroke:none;stroke-width:1;stroke-opacity:1"
       d="m -7.5506192,-13.898306 -1.6901377,3.733439 -0.1283234,1.3238137 0.3312273,2.2571725 -3.996665,1.0715541 -0.84123,-2.1211725 -0.77323,-1.081425 -3.330921,-2.3887858 -1.921558,1.1099408 0.402518,4.0778275 0.550584,1.2108449 1.415943,1.7899448 -2.926209,2.9251116 -1.788848,-1.4159425 -1.210845,-0.5505837 -4.078925,-0.4025182 -1.108844,1.9215582 2.38769,3.3309207 1.082522,0.7732297 2.120076,0.8412302 -1.070458,3.996666 -2.257172,-0.331228 -1.323814,0.128323 -3.733439,1.690138 0,2.219883 3.733439,1.690138 1.323814,0.128323 2.257172,-0.331227 1.070458,3.996665 -2.120076,0.84123 -1.082522,0.77323 -2.38769,3.330921 1.108844,1.921557 4.078925,-0.403615 1.210845,-0.549486 1.788848,-1.415943 2.926209,2.925112 -1.415943,1.788848 -0.550584,1.211942 -0.402518,4.077827 1.921558,1.109941 3.330921,-2.388786 0.77323,-1.082522 0.84123,-2.120075 3.996665,1.070457 -0.3312273,2.257173 0.1283234,1.32491 1.6901377,3.733439 2.2187857,0 1.6901374,-3.733439 0.1294202,-1.32491 -0.3323244,-2.257173 3.9966661,-1.070457 0.8423269,2.120075 0.7732293,1.082522 3.3309208,2.388786 1.9215575,-1.109941 -0.403615,-4.077827 -0.5505825,-1.211942 -1.4159433,-1.788848 2.9262092,-2.925112 1.7888473,1.415943 1.210845,0.549486 4.078924,0.403615 1.109942,-1.921557 -2.388787,-3.330921 -1.082522,-0.77323 -2.120075,-0.84123 1.070457,-3.996665 2.257173,0.331227 1.323813,-0.128323 3.734536,-1.690138 0,-2.219883 L 14.824786,8.301615 13.500973,8.173292 11.2438,8.50452 10.173343,4.507854 12.293418,3.6666238 13.37594,2.8933941 15.764727,-0.4375266 14.654785,-2.3590848 10.575861,-1.9565666 9.365016,-1.4059829 7.5761687,0.0099596 4.6499595,-2.915152 6.0659028,-4.7050968 6.6164853,-5.9159417 7.0201003,-9.9937692 5.0985428,-11.10371 1.767622,-8.7149242 l -0.7732293,1.081425 -0.8423269,2.1211725 -3.9966661,-1.0715541 0.3323244,-2.2571725 -0.1294202,-1.3238137 -1.6901374,-3.733439 -2.2187857,0 z m 1.1099409,12.3650968 A 12.634904,12.634904 0 0 1 6.1942253,11.101695 12.634904,12.634904 0 0 1 -6.4406783,23.736598 12.634904,12.634904 0 0 1 -19.075582,11.101695 12.634904,12.634904 0 0 1 -6.4406783,-1.5332092 Z"/>
  </g>
</svg>
